<svg width="24" height="24" viewBox="0 0 24 24" fill="none" xmlns="http://www.w3.org/2000/svg">
<rect width="24" height="24" fill="white"/>
<path d="M10.7669 20.1336L10.7662 20.1329C7.96865 17.5961 5.68711 15.5264 4.09894 13.5847C2.51651 11.65 1.67474 9.90351 1.67474 8.02177C1.67474 4.96373 4.0706 2.56787 7.12864 2.56787C8.86085 2.56787 10.5312 3.37669 11.6193 4.65452L12 5.10156L12.3807 4.65452C13.4689 3.37669 15.1392 2.56787 16.8714 2.56787C19.9294 2.56787 22.3253 4.96373 22.3253 8.02177C22.3253 9.90351 21.4835 11.65 19.901 13.5862C18.3157 15.5256 16.0399 17.5938 13.2495 20.1295L13.2345 20.1431L13.2334 20.1441L12.0013 21.2573L10.7669 20.1336Z" stroke="black"/>
</svg>
